<?xml version="1.0" encoding="utf-8"?>
<!-- Generator: Adobe Illustrator 16.0.0, SVG Export Plug-In . SVG Version: 6.00 Build 0)  -->
<!DOCTYPE svg PUBLIC "-//W3C//DTD SVG 1.1//EN" "http://www.w3.org/Graphics/SVG/1.1/DTD/svg11.dtd">
<svg version="1.1" id="Layer_1" xmlns="http://www.w3.org/2000/svg" xmlns:xlink="http://www.w3.org/1999/xlink" x="0px" y="0px"
	 width="381.105px" height="166.895px" viewBox="0 0 381.105 166.895" enable-background="new 0 0 381.105 166.895"
	 xml:space="preserve">
<g>
	<g>
		<path fill="#FFFFFF" d="M120.054,41.198c1.75,1.464,2.627,3.72,2.627,6.768c0,3.048-0.895,5.28-2.682,6.696
			c-1.789,1.417-4.529,2.124-8.225,2.124h-4.465v7.38h-4.248V39.001h8.641C115.517,39.001,118.3,39.734,120.054,41.198z
			 M117.046,51.583c0.854-0.9,1.279-2.22,1.279-3.96c0-1.74-0.541-2.97-1.621-3.69c-1.08-0.72-2.771-1.08-5.074-1.08h-4.32v10.08
			h4.932C114.593,52.934,116.195,52.483,117.046,51.583z"/>
		<path fill="#FFFFFF" d="M147.583,39.001v3.996h-13.428v6.66h12.059v3.78h-12.059v6.732h13.859v3.996h-18.107V39.001H147.583z"/>
		<path fill="#FFFFFF" d="M160.33,58.441l-2.52,5.724h-4.535l11.088-25.164h4.535l11.088,25.164h-4.535l-2.52-5.724H160.33z
			 M171.203,54.518l-4.572-10.368l-4.572,10.368H171.203z"/>
		<path fill="#FFFFFF" d="M196.292,60.313c1.465,0,2.725-0.246,3.782-0.738c1.055-0.492,2.16-1.278,3.312-2.358l2.734,2.808
			c-2.664,2.952-5.898,4.428-9.702,4.428c-3.805,0-6.961-1.225-9.469-3.672c-2.508-2.448-3.762-5.544-3.762-9.288
			c0-3.744,1.279-6.864,3.834-9.36c2.557-2.496,5.783-3.744,9.684-3.744c3.901,0,7.159,1.44,9.776,4.32l-2.701,2.952
			c-1.199-1.152-2.334-1.956-3.402-2.412c-1.066-0.456-2.32-0.684-3.762-0.684c-2.543,0-4.68,0.822-6.408,2.466
			c-1.727,1.644-2.592,3.744-2.592,6.3s0.859,4.692,2.574,6.408C191.908,59.456,193.941,60.313,196.292,60.313z"/>
		<path fill="#FFFFFF" d="M213.25,64.166V39.001h4.248V49.91h12.492V39.001h4.248v25.164h-4.248V53.87h-12.492v10.296H213.25z"/>
	</g>
	<rect x="25.747" y="46.164" fill="#FFFFFF" width="16" height="18"/>
	<rect x="45.997" y="24.734" fill="#FFFFFF" width="16" height="39.431"/>
	<rect x="66.247" y="39.234" fill="#FFFFFF" width="16" height="24.931"/>
</g>
<g>
	<path fill="#FFFFFF" d="M51.467,132.926c2.927,0,5.447-0.492,7.56-1.477c2.112-0.982,4.32-2.556,6.624-4.716l5.473,5.616
		c-5.328,5.904-11.797,8.855-19.404,8.855c-7.608,0-13.921-2.447-18.937-7.344s-7.523-11.088-7.523-18.576s2.556-13.727,7.668-18.72
		c5.112-4.991,11.567-7.487,19.368-7.487c7.8,0,14.315,2.879,19.548,8.639l-5.4,5.904c-2.4-2.304-4.669-3.911-6.804-4.824
		c-2.137-0.91-4.644-1.367-7.524-1.367c-5.088,0-9.359,1.645-12.815,4.932c-3.456,3.289-5.185,7.488-5.185,12.6
		c0,5.112,1.716,9.385,5.148,12.816C42.695,131.21,46.762,132.926,51.467,132.926z"/>
	<path fill="#FFFFFF" d="M92.219,129.182l-5.04,11.447h-9.072l22.176-50.328h9.072l22.176,50.328h-9.072l-5.04-11.447H92.219z
		 M113.963,121.334l-9.145-20.736l-9.144,20.736H113.963z"/>
	<path fill="#FFFFFF" d="M179.841,90.301h8.496v50.328h-9.216l-28.512-36.72v36.72h-8.496V90.301h8.496l29.231,37.584V90.301z"/>
	<path fill="#FFFFFF" d="M228.873,132.926c2.928,0,5.447-0.492,7.561-1.477c2.111-0.982,4.32-2.556,6.623-4.716l5.473,5.616
		c-5.328,5.904-11.797,8.855-19.404,8.855s-13.92-2.447-18.936-7.344s-7.523-11.088-7.523-18.576s2.555-13.727,7.668-18.72
		c5.111-4.991,11.566-7.487,19.367-7.487s14.316,2.879,19.549,8.639l-5.4,5.904c-2.4-2.304-4.67-3.911-6.805-4.824
		c-2.137-0.91-4.643-1.367-7.523-1.367c-5.088,0-9.359,1.645-12.816,4.932c-3.455,3.289-5.184,7.488-5.184,12.6
		c0,5.112,1.715,9.385,5.148,12.816C220.102,131.21,224.168,132.926,228.873,132.926z"/>
	<path fill="#FFFFFF" d="M297.85,90.301v7.992h-26.855v13.32h24.119v7.561h-24.119v13.463h27.719v7.992h-36.215V90.301H297.85z"/>
	<path fill="#FFFFFF" d="M353.361,106.646c0,8.305-3.625,13.536-10.873,15.696l13.176,18.287h-10.799l-12.025-16.92h-11.158v16.92
		h-8.496V90.301h18.719c7.68,0,13.176,1.297,16.488,3.889S353.361,100.934,353.361,106.646z M342.057,113.774
		c1.729-1.487,2.592-3.875,2.592-7.164c0-3.287-0.889-5.544-2.664-6.768c-1.775-1.225-4.943-1.836-9.504-1.836h-10.799v18h10.584
		C337.064,116.006,340.328,115.262,342.057,113.774z"/>
</g>
</svg>
